<svg xmlns="http://www.w3.org/2000/svg" width="33" height="27.65" viewBox="0 0 33 27.65">
  <g id="카트아이콘" transform="translate(-30.963 -75.651)">
    <g id="그룹_158" data-name="그룹 158" transform="translate(38.578 99.637)">
      <path id="패스_160" data-name="패스 160" d="M31.981,77.229a.509.509,0,1,0,0,1.018.509.509,0,0,0,0-1.018Z" transform="translate(-31.464 -77.229)" fill="#888"/>
    </g>
    <g id="그룹_159" data-name="그룹 159" transform="translate(30.963 75.651)">
      <path id="패스_161" data-name="패스 161" d="M63.477,75.651a4.96,4.96,0,0,0-4.788,3.709l-.274,1.034H33.258a2.254,2.254,0,0,0-1.809.882,2.289,2.289,0,0,0-.41,1.991l2.63,10.063a2.291,2.291,0,0,0,2.2,1.718H54.6l-.517,1.991-.38-.03a3.154,3.154,0,0,0-3.1,2.63H42.2a3.154,3.154,0,1,0,0,1.018H50.6a3.144,3.144,0,1,0,4.439-3.344l.684-2.645h0l.061-.182L59.661,79.6a3.928,3.928,0,0,1,3.815-2.934.493.493,0,0,0,.486-.5A.507.507,0,0,0,63.477,75.651ZM39.095,102.3a2.143,2.143,0,1,1,2.128-2.189v.091A2.138,2.138,0,0,1,39.095,102.3Zm16.751-2.143A2.143,2.143,0,1,1,53.7,98.011,2.141,2.141,0,0,1,55.846,100.154Zm.2-10.656H52.2l.547-3.557h4.226l-.806,3.1ZM32.772,85.942H37l.547,3.557H33.7Zm5.244,0h3.815l.2,3.557H38.548Zm4.819,0h4.074l-.2,3.557H43.017Zm5.077,0h3.815L51.179,89.5H47.714Zm9.318-.988H52.9l.532-3.557h4.727Zm-5.351,0H47.957l.182-3.557h4.271ZM47.136,81.4l-.182,3.557H42.789L42.606,81.4Zm-5.533,0,.182,3.557H37.864L37.316,81.4Zm-9.379.517a1.281,1.281,0,0,1,1.034-.517H36.3l.547,3.557H32.513l-.5-1.93A1.248,1.248,0,0,1,32.224,81.914Zm2.4,11.172L33.957,90.5H37.7l.532,3.542H35.872A1.3,1.3,0,0,1,34.626,93.086ZM38.7,90.5h3.375l.2,3.542H39.247Zm4.56,3.542L43.077,90.5h3.587l-.182,3.542Zm4.211,0,.2-3.542h3.375L50.5,94.044Zm4.028,0,.547-3.542h3.739l-.927,3.542Z" transform="translate(-30.963 -75.651)" fill="#888"/>
    </g>
    <g id="그룹_160" data-name="그룹 160" transform="translate(53.186 99.637)">
      <path id="패스_162" data-name="패스 162" d="M32.425,77.746a.509.509,0,1,0,.517-.517A.509.509,0,0,0,32.425,77.746Z" transform="translate(-32.425 -77.229)" fill="#888"/>
    </g>
  </g>
</svg>
