<svg xmlns="http://www.w3.org/2000/svg" width="25.121" height="37.746" viewBox="0 0 25.121 37.746">
  <g id="장바구니" transform="translate(-696.659 -386.473)">
    <g id="그룹_4" data-name="그룹 4" transform="translate(696.659 394.462)">
      <path id="패스_5" data-name="패스 5" d="M717.412,414.649h-23.7a.514.514,0,0,1-.515-.515V385.793a.514.514,0,0,1,.515-.515h23.7a.514.514,0,0,1,.515.515v28.341A.514.514,0,0,1,717.412,414.649Zm-23.19-1.03H716.9V386.308H694.222Z" transform="translate(-692.999 -385.085)" fill="#333"/>
      <path id="패스_6" data-name="패스 6" d="M717.507,414.937H693.8a.707.707,0,0,1-.708-.708V385.888a.707.707,0,0,1,.708-.708h23.7a.709.709,0,0,1,.708.708v28.341A.709.709,0,0,1,717.507,414.937Zm-23.7-29.371a.324.324,0,0,0-.322.322v28.341a.324.324,0,0,0,.322.322h23.7a.322.322,0,0,0,.32-.322V385.888a.322.322,0,0,0-.32-.322Zm23.188,28.341H694.317a.193.193,0,0,1-.193-.193V386.4a.193.193,0,0,1,.193-.193H716.99a.193.193,0,0,1,.195.193v27.311A.193.193,0,0,1,716.99,413.907Zm-22.48-.385H716.8V386.6H694.51Z" transform="translate(-693.094 -385.18)" fill="#333"/>
    </g>
    <g id="그룹_5" data-name="그룹 5" transform="translate(700.91 386.473)">
      <path id="패스_7" data-name="패스 7" d="M711.07,395.772a.514.514,0,0,1-.513-.515v-5.926a7.086,7.086,0,0,0-14.173,0v5.926a.515.515,0,1,1-1.03,0v-5.926a8.116,8.116,0,0,1,16.233,0v5.926A.516.516,0,0,1,711.07,395.772Z" transform="translate(-695.161 -381.021)" fill="#333"/>
      <path id="패스_8" data-name="패스 8" d="M711.165,396.062a.71.71,0,0,1-.708-.71v-5.926a6.892,6.892,0,0,0-13.783,0v5.926a.709.709,0,1,1-1.418,0v-5.926a8.309,8.309,0,0,1,16.619,0v5.926A.711.711,0,0,1,711.165,396.062Zm-7.6-13.915a7.288,7.288,0,0,1,7.279,7.279v5.926a.321.321,0,1,0,.643,0v-5.926a7.923,7.923,0,0,0-15.846,0v5.926a.322.322,0,1,0,.645,0v-5.926A7.288,7.288,0,0,1,703.565,382.147Z" transform="translate(-695.256 -381.117)" fill="#333"/>
    </g>
  </g>
</svg>
