<svg xmlns="http://www.w3.org/2000/svg" width="66.773" height="65.961" viewBox="0 0 66.773 65.961">
  <path id="패스_34" data-name="패스 34" d="M137.171,76.459l-5.136-8.58-.061-.092-.061-.092h-.031l-.215-.185h-.031l-11.993-6.335a12.624,12.624,0,0,0-7.657-21.926A12.638,12.638,0,1,0,98.609,53.611a12.6,12.6,0,0,0,1.476,4.4H76.652l-.154.031h-.092l-.062.031-.061.031-.154.062h0l-.061.031-.061.092-.123.123-.031.031L70.718,65.3a1.186,1.186,0,0,0-.154.861.921.921,0,0,0,.523.646l4.582,2.429v14.7a.964.964,0,0,0,.523.892L93.935,94.2l.061.031h.061l.369.092h36.748a1.024,1.024,0,0,0,1.015-1.015V78h4.121a1.1,1.1,0,0,0,.892-.523A1.073,1.073,0,0,0,137.171,76.459Zm-10.087-9.072H114.446V64a12.48,12.48,0,0,0,3.413-1.476Zm-5.351-15.529a10.624,10.624,0,1,1-10.64-10.64A10.637,10.637,0,0,1,121.734,51.858ZM99.07,47.952a13.99,13.99,0,0,0-.585,3.629,10.6,10.6,0,1,1,11.47-12.331,12.86,12.86,0,0,0-6.7,2.706m.492-.369a11.938,11.938,0,0,0-4.674,6.365M101.5,60.068a12.682,12.682,0,0,0,9.594,4.428,9.224,9.224,0,0,0,1.322-.092v2.983H94.673l-13.654-7.2-.277-.123Zm-24.539.246,2.583,1.353V61.7l1.261.677L92.92,68.74,89.014,74l-15.96-8.426Zm.707,9.994L88.83,76.182a.868.868,0,0,0,.461.123,1.081,1.081,0,0,0,.83-.4l3.29-4.428V91.619L77.667,83.285Zm52.492,21.956H95.441v-20.2l3.229,5.412a1.051,1.051,0,0,0,.861.523h30.628ZM100.116,75.936l-3.936-6.55h34.441l3.905,6.55Z" transform="translate(-70.54 -28.364)" fill="#c9c9c9"/>
</svg>
