<svg xmlns="http://www.w3.org/2000/svg" width="66.531" height="66.5" viewBox="0 0 66.531 66.5">
  <g id="쿠폰아이콘" transform="translate(-52.69 -80.238)">
    <g id="그룹_10" data-name="그룹 10" transform="translate(52.69 80.238)">
      <path id="패스_21" data-name="패스 21" d="M118.915,121.9,91.163,94.114a1.276,1.276,0,0,0-.735-.276H86.139V89.519a.97.97,0,0,0-.276-.7l-8.3-8.3a1.011,1.011,0,0,0-1.715.735.93.93,0,0,0,.306.7,2.294,2.294,0,0,1,0,3.186,2.247,2.247,0,0,1-3.216,0,1.078,1.078,0,0,0-1.44,0,1.129,1.129,0,0,0-.306.735,1,1,0,0,0,.306.7,2.263,2.263,0,0,1-3.186,3.216,1.017,1.017,0,0,0-1.44,0,.97.97,0,0,0-.276.7,1.022,1.022,0,0,0,.276.7,2.278,2.278,0,0,1,.674,1.593,2.173,2.173,0,0,1-.674,1.593,2.137,2.137,0,0,1-1.593.7,2.187,2.187,0,0,1-1.593-.7h0a1.078,1.078,0,0,0-1.44,0,1.017,1.017,0,0,0,0,1.44h0a2.274,2.274,0,0,1,0,3.216,2.237,2.237,0,0,1-3.186,0,1.016,1.016,0,0,0-1.439,0,1,1,0,0,0-.306.7.928.928,0,0,0,.306.674,2.406,2.406,0,0,1,.674,1.623,2.35,2.35,0,0,1-.674,1.624,2.294,2.294,0,0,1-3.186,0,.966.966,0,0,0-1.44,0,1.046,1.046,0,0,0-.306.674,1.07,1.07,0,0,0,.306.735l8.3,8.27a.888.888,0,0,0,.7.306H66.29v4.319a1,1,0,0,0,.306.7l27.782,27.752a.964.964,0,0,0,1.409,0,.945.945,0,0,0,0-1.379A2.274,2.274,0,0,1,99,141.837a.98.98,0,0,0,1.409,0,1.031,1.031,0,0,0,.306-.7.95.95,0,0,0-.306-.735,2.237,2.237,0,0,1,0-3.186,2.274,2.274,0,0,1,3.216,0,1.038,1.038,0,0,0,1.409,0,1,1,0,0,0,.306-.735.93.93,0,0,0-.306-.7,2.2,2.2,0,0,1-.643-1.593,2.318,2.318,0,0,1,.643-1.623,2.332,2.332,0,0,1,3.216,0h0a.932.932,0,0,0,1.409,0,.98.98,0,0,0,0-1.409v-.031a2.2,2.2,0,0,1,0-3.155,2.274,2.274,0,0,1,3.216,0,.98.98,0,0,0,1.409,0,1.045,1.045,0,0,0,.306-.735.978.978,0,0,0-.306-.7,2.237,2.237,0,0,1,0-3.186,2.274,2.274,0,0,1,3.216,0,1.038,1.038,0,0,0,1.409,0,1,1,0,0,0,.306-.735A.93.93,0,0,0,118.915,121.9Zm-6.034,0a4.246,4.246,0,0,0-1.256,3.4,4.193,4.193,0,0,0-3.369,1.225A4.324,4.324,0,0,0,107,129.891h-.337a4.261,4.261,0,0,0-3.032,1.256,4.189,4.189,0,0,0-1.225,3.4,4.221,4.221,0,0,0-3.4,1.225,4.121,4.121,0,0,0-1.225,3.4,4.219,4.219,0,0,0-3.4,1.225,4.571,4.571,0,0,0-1.164,2.083l-24.9-24.934v-4.9a.994.994,0,0,0-1.011-.98H62.4l-5.391-5.422a4.6,4.6,0,0,0,2.052-1.164,4.3,4.3,0,0,0,1.225-3.369,4.31,4.31,0,0,0,3.4-1.286,4.223,4.223,0,0,0,1.225-3.37l.368.031a4.37,4.37,0,0,0,3.033-1.256,4.193,4.193,0,0,0,1.225-3.369,4.431,4.431,0,0,0,3.4-1.256,4.37,4.37,0,0,0,1.256-3.032l-.031-.368a4.121,4.121,0,0,0,3.4-1.225A4.409,4.409,0,0,0,78.7,84.526l5.422,5.422v4.9a.944.944,0,0,0,.306.7l.184.122.122.092h.031l.368.092h4.9l24.9,24.9A4.034,4.034,0,0,0,112.88,121.9Z" transform="translate(-52.69 -80.238)" fill="#c9c9c9"/>
    </g>
    <g id="그룹_11" data-name="그룹 11" transform="translate(78.183 99.765)">
      <path id="패스_22" data-name="패스 22" d="M53.821,81.2a.98.98,0,0,0,0,1.409.861.861,0,0,0,.7.276.966.966,0,0,0,.735-.276,1.038,1.038,0,0,0,0-1.409A.966.966,0,0,0,53.821,81.2Z" transform="translate(-53.522 -80.875)" fill="#c9c9c9"/>
    </g>
    <g id="그룹_12" data-name="그룹 12" transform="translate(72.24 105.7)">
      <path id="패스_23" data-name="패스 23" d="M53.627,81.368a1.017,1.017,0,0,0,0,1.44,1.055,1.055,0,0,0,.7.306,1,1,0,0,0,.7-.306,1.017,1.017,0,0,0,0-1.44A.98.98,0,0,0,53.627,81.368Z" transform="translate(-53.328 -81.069)" fill="#c9c9c9"/>
    </g>
    <g id="그룹_13" data-name="그룹 13" transform="translate(69.269 108.679)">
      <path id="패스_24" data-name="패스 24" d="M53.53,81.488a.98.98,0,0,0,0,1.409,1,1,0,0,0,1.439,0,1.038,1.038,0,0,0,0-1.409A.966.966,0,0,0,53.53,81.488Z" transform="translate(-53.231 -81.166)" fill="#c9c9c9"/>
    </g>
    <g id="그룹_14" data-name="그룹 14" transform="translate(75.212 102.76)">
      <path id="패스_25" data-name="패스 25" d="M53.724,81.272a.945.945,0,0,0,0,1.378.93.93,0,0,0,.7.306.886.886,0,0,0,.7-.306.9.9,0,0,0,0-1.378A.98.98,0,0,0,53.724,81.272Z" transform="translate(-53.425 -80.973)" fill="#c9c9c9"/>
    </g>
    <g id="그룹_15" data-name="그룹 15" transform="translate(81.154 96.787)">
      <path id="패스_26" data-name="패스 26" d="M55.327,81.077a.98.98,0,0,0-1.409,0,1.016,1.016,0,0,0,0,1.439,1.055,1.055,0,0,0,.7.306,1,1,0,0,0,.7-.306A1.017,1.017,0,0,0,55.327,81.077Z" transform="translate(-53.619 -80.778)" fill="#c9c9c9"/>
    </g>
    <g id="그룹_16" data-name="그룹 16" transform="translate(83.084 110.624)">
      <path id="패스_27" data-name="패스 27" d="M53.981,98.506a.978.978,0,0,0,.7.306,1,1,0,0,0,.735-.306l15.561-15.56a1.017,1.017,0,0,0,0-1.44,1.038,1.038,0,0,0-1.409,0L53.981,97.1A.98.98,0,0,0,53.981,98.506Z" transform="translate(-53.682 -81.23)" fill="#004f4a"/>
    </g>
    <g id="그룹_17" data-name="그룹 17" transform="translate(92.809 120.395)">
      <path id="패스_28" data-name="패스 28" d="M55.171,82.652a3.9,3.9,0,0,0,0,5.575,3.817,3.817,0,0,0,2.757,1.133,3.939,3.939,0,0,0,2.788-1.133,3.993,3.993,0,0,0,1.133-2.787,3.94,3.94,0,0,0-1.133-2.788A4.036,4.036,0,0,0,55.171,82.652Zm4.1,4.135a1.983,1.983,0,0,1-2.7,0,1.923,1.923,0,0,1,0-2.7,1.879,1.879,0,0,1,1.348-.582,1.828,1.828,0,0,1,1.348.582,1.85,1.85,0,0,1,.551,1.348A1.9,1.9,0,0,1,59.276,86.787Z" transform="translate(-54 -81.549)" fill="#004f4a"/>
    </g>
    <g id="그룹_18" data-name="그룹 18" transform="translate(83.107 110.693)">
      <path id="패스_29" data-name="패스 29" d="M54.816,82.358a3.747,3.747,0,0,0-1.133,2.726,3.921,3.921,0,1,0,7.842,0,3.747,3.747,0,0,0-1.133-2.726A4.014,4.014,0,0,0,54.816,82.358Zm4.135,4.1a1.923,1.923,0,0,1-2.7,0,1.887,1.887,0,0,1,0-2.726,1.923,1.923,0,0,1,2.7,0,1.9,1.9,0,0,1,.551,1.348A1.92,1.92,0,0,1,58.951,86.462Z" transform="translate(-53.683 -81.232)" fill="#004f4a"/>
    </g>
  </g>
</svg>
