<svg xmlns="http://www.w3.org/2000/svg" width="65" height="100.627" viewBox="0 0 65 100.627">
  <g id="그룹_136" data-name="그룹 136" transform="translate(-2.374 -23.816)">
    <g id="그룹_134" data-name="그룹 134" transform="translate(2.374 23.816)">
      <path id="패스_132" data-name="패스 132" d="M65.891,23.816H54.078a1.583,1.583,0,0,0-1.529,1.575v1.621h-35.3V25.391a1.583,1.583,0,0,0-1.529-1.575H3.9a1.583,1.583,0,0,0-1.529,1.575V65.234A1.5,1.5,0,0,0,3.9,66.717H15.717a1.5,1.5,0,0,0,1.529-1.483V63.567H26V69.5a28.215,28.215,0,1,0,17.79,0v-5.93h8.756v1.668a1.5,1.5,0,0,0,1.529,1.483H65.891a1.464,1.464,0,0,0,1.483-1.483V25.391A1.544,1.544,0,0,0,65.891,23.816ZM52.549,30.024v13.76h-35.3V30.024ZM14.188,63.706H5.432V26.92h8.756V63.706ZM60.054,96.229A25.157,25.157,0,1,1,34.9,71.072,25.19,25.19,0,0,1,60.054,96.229ZM40.735,68.663a27.134,27.134,0,0,0-5.837-.6,26.535,26.535,0,0,0-5.837.6v-5.1H40.735ZM17.246,60.509V46.8h35.3V60.509Zm47.071,3.2h-8.71V26.92h8.71Z" transform="translate(-2.374 -23.816)" fill="#004f4a"/>
    </g>
    <g id="그룹_135" data-name="그룹 135" transform="translate(16.155 76.863)">
      <path id="패스_133" data-name="패스 133" d="M20.024,25.795,15.067,35.8,3.994,37.423a1.629,1.629,0,0,0-1.251,1.066,1.573,1.573,0,0,0,.417,1.575l8.015,7.783-1.9,11.026a1.569,1.569,0,0,0,.6,1.529,1.687,1.687,0,0,0,1.622.139l9.914-5.235,9.914,5.235a3.08,3.08,0,0,0,.695.139,1.426,1.426,0,0,0,.88-.278,1.483,1.483,0,0,0,.6-1.529L31.653,47.848l8.015-7.783a1.55,1.55,0,0,0,.371-1.575,1.5,1.5,0,0,0-1.2-1.066L27.715,35.8,22.758,25.795a1.493,1.493,0,0,0-1.344-.834A1.618,1.618,0,0,0,20.024,25.795Zm5.328,12.092a1.45,1.45,0,0,0,1.112.834l8.849,1.3-6.393,6.208A1.455,1.455,0,0,0,28.5,47.57l1.529,8.8-7.922-4.123a1.57,1.57,0,0,0-1.436,0L12.8,56.372l1.529-8.8a1.614,1.614,0,0,0-.463-1.344L7.469,40.018l8.849-1.3a1.449,1.449,0,0,0,1.158-.834l3.938-7.969Z" transform="translate(-2.671 -24.961)" fill="#90bd20"/>
    </g>
  </g>
</svg>
