<svg xmlns="http://www.w3.org/2000/svg" width="94" height="94.61" viewBox="0 0 94 94.61">
  <g id="그룹_145" data-name="그룹 145" transform="translate(-23.791 -33.305)">
    <g id="그룹_137" data-name="그룹 137" transform="translate(45.658 49.64)">
      <path id="패스_134" data-name="패스 134" d="M25.774,36.555H50.82a1.48,1.48,0,0,0,1.437-1.437A1.422,1.422,0,0,0,50.82,33.68H25.774a1.433,1.433,0,0,0-1.481,1.438A1.489,1.489,0,0,0,25.774,36.555Z" transform="translate(-24.293 -33.68)" fill="#90bd20"/>
    </g>
    <g id="그룹_138" data-name="그룹 138" transform="translate(45.658 59.658)">
      <path id="패스_135" data-name="패스 135" d="M25.774,36.828H50.82a1.489,1.489,0,0,0,1.437-1.481A1.45,1.45,0,0,0,50.82,33.91H25.774a1.46,1.46,0,0,0-1.481,1.437A1.5,1.5,0,0,0,25.774,36.828Z" transform="translate(-24.293 -33.91)" fill="#90bd20"/>
    </g>
    <g id="그룹_139" data-name="그룹 139" transform="translate(45.658 69.72)">
      <path id="패스_136" data-name="패스 136" d="M25.774,36.972H42.239a1.442,1.442,0,0,0,1.438-1.394,1.422,1.422,0,0,0-1.438-1.437H25.774a1.433,1.433,0,0,0-1.481,1.437A1.452,1.452,0,0,0,25.774,36.972Z" transform="translate(-24.293 -34.141)" fill="#90bd20"/>
    </g>
    <g id="그룹_140" data-name="그룹 140" transform="translate(45.658 79.739)">
      <path id="패스_137" data-name="패스 137" d="M25.774,37.246H36.49a1.46,1.46,0,0,0,1.437-1.481,1.442,1.442,0,0,0-1.437-1.394H25.774a1.453,1.453,0,0,0-1.481,1.394A1.469,1.469,0,0,0,25.774,37.246Z" transform="translate(-24.293 -34.371)" fill="#90bd20"/>
    </g>
    <g id="그룹_141" data-name="그룹 141" transform="translate(84.381 79.739)">
      <path id="패스_138" data-name="패스 138" d="M26.619,37.246h3.572a1.46,1.46,0,0,0,1.437-1.481,1.442,1.442,0,0,0-1.437-1.394H26.619a1.442,1.442,0,0,0-1.437,1.394A1.46,1.46,0,0,0,26.619,37.246Z" transform="translate(-25.182 -34.371)" fill="#90bd20"/>
    </g>
    <g id="그룹_142" data-name="그룹 142" transform="translate(71.488 89.801)">
      <path id="패스_139" data-name="패스 139" d="M42.789,34.6H26.28A1.376,1.376,0,0,0,24.886,36a1.413,1.413,0,0,0,1.394,1.438H42.789A1.45,1.45,0,0,0,44.226,36,1.413,1.413,0,0,0,42.789,34.6Z" transform="translate(-24.886 -34.602)" fill="#90bd20"/>
    </g>
    <g id="그룹_143" data-name="그룹 143" transform="translate(45.658 99.776)">
      <path id="패스_140" data-name="패스 140" d="M68.026,34.831H25.774a1.46,1.46,0,0,0-1.481,1.437,1.433,1.433,0,0,0,1.481,1.437H68.026a1.422,1.422,0,0,0,1.437-1.437A1.45,1.45,0,0,0,68.026,34.831Z" transform="translate(-24.293 -34.831)" fill="#90bd20"/>
    </g>
    <g id="그룹_144" data-name="그룹 144" transform="translate(23.791 33.305)">
      <path id="패스_141" data-name="패스 141" d="M115.962,35.352a6.283,6.283,0,0,0-8.93,0L97.493,44.8,86.385,33.7h0l-.392-.261-.174-.044L85.47,33.3H34.289a1.422,1.422,0,0,0-1.437,1.438v6.316H25.228A1.45,1.45,0,0,0,23.791,42.5v83.938a1.488,1.488,0,0,0,1.437,1.481H92.658a1.452,1.452,0,0,0,1.394-1.481v-6.36h7.666a1.413,1.413,0,0,0,1.438-1.394V57.045l.218-.218h0l12.589-12.589A6.31,6.31,0,0,0,115.962,35.352ZM75.887,80.261l-4.835-4.879L95.445,50.946l4.879,4.879ZM65.128,86.229c-.566-1.133,1.917-6.055,3.964-8.755l4.7,4.7C71.1,84.269,66.174,86.665,65.128,86.229ZM86.821,38.184l8.668,8.668L92.7,49.64h-5.88ZM91.22,125H26.666V43.933h6.185V118.68a1.413,1.413,0,0,0,1.437,1.394H91.22Zm9.06-7.8H35.726V36.136h48.22V51.077a1.45,1.45,0,0,0,1.437,1.437H89.87L68,74.338c-1.176,1.176-6.621,8.625-5.619,12.545L59.466,89.8H47.138a1.424,1.424,0,0,0-1.481,1.394,1.46,1.46,0,0,0,1.481,1.438H60.076l.566-.131.479-.3,3.267-3.311a3.717,3.717,0,0,0,1,.131c4.051,0,10.411-4.661,11.543-5.75L100.28,59.92Zm13.634-74.965L102.328,53.778l-4.835-4.835,11.543-11.63a3.584,3.584,0,0,1,4.879,0A3.5,3.5,0,0,1,113.914,42.235Z" transform="translate(-23.791 -33.305)" fill="#004f4a"/>
    </g>
  </g>
</svg>
