<svg xmlns="http://www.w3.org/2000/svg" xmlns:xlink="http://www.w3.org/1999/xlink" width="94" height="93.048" viewBox="0 0 94 93.048">
  <defs>
    <clipPath id="clip-path">
      <path id="패스_159" data-name="패스 159" d="M130.639,110.451a94.016,94.016,0,0,0-9.136-2.944h0c-2.338-.606-4.417-1.039-6.365-1.386h-.043v-.649h1a1.429,1.429,0,1,0,0-2.857h-1V98.327h1a1.433,1.433,0,0,0,1.429-1.385,1.414,1.414,0,0,0-1.429-1.429h-.173c.823-2.511,1.818-5.023,2.857-7.4,2.165-5.369,4.46-10.911,4.46-16.28,0-13.682-10.565-24.766-23.511-24.766-12.989,0-23.511,11.084-23.511,24.766,0,5.456,2.295,11.128,4.546,16.583.953,2.338,1.905,4.763,2.685,7.1h-.086a1.388,1.388,0,0,0-1.429,1.429,1.4,1.4,0,0,0,1.429,1.385h.433v4.287h-.433a1.429,1.429,0,1,0,0,2.857h.433v.693c-1.905.347-3.94.779-6.235,1.342-3.161.866-6.235,1.818-9.179,2.944a24.762,24.762,0,0,0-15.847,23.208,6.394,6.394,0,0,0,6.365,6.451h81.271a6.394,6.394,0,0,0,6.365-6.451A24.8,24.8,0,0,0,130.639,110.451Zm-14.678-1.3c1.126.26,2.252.52,3.464.823l-.043.217-.26.866-.26.866-.26.779-.3.823-.26.693-.3.736-.346.693-.3.606-.346.649-.346.563-.3.563-.39.563-.346.52-.346.476-.346.476-.346.433-.346.39-.39.346-.3.39-.346.3-.3.346-.346.3-.346.26-.26.217-.3.216-.3.217-.216.216-.3.217-.217.13-.39.26-7.534-6.581C106.652,116.3,114.272,113.265,115.961,109.152ZM79.071,71.829c0-12.123,9.266-21.909,20.653-21.909s20.653,9.785,20.653,21.909c0,4.806-2.078,9.829-4.243,15.154a88.185,88.185,0,0,0-3.2,8.53h-7.707a63.973,63.973,0,0,1-1.082-14.635h2.9a4.32,4.32,0,0,0,4.07-5.845,4.275,4.275,0,0,0-4.07-2.814h-.086a4.349,4.349,0,0,0-3.55,1.775,9.316,9.316,0,0,0-1.732,4.027h-3.94a9.482,9.482,0,0,0-1.689-4.07,4.527,4.527,0,0,0-3.637-1.732,4.16,4.16,0,0,0-3.161,1.342,4.075,4.075,0,0,0-1.169,3.161,4.468,4.468,0,0,0,4.5,4.156h2.685a63.949,63.949,0,0,1-1.039,14.635H86.432c-.866-2.771-1.949-5.5-3.031-8.183C81.279,82.09,79.071,76.678,79.071,71.829Zm19.051,9.049h3.161a67.089,67.089,0,0,0,1.039,14.635h-5.2A64.821,64.821,0,0,0,98.122,80.878Zm6.451-2.857a6.852,6.852,0,0,1,1-2.252A1.761,1.761,0,0,1,107,75.076a1.471,1.471,0,0,1,1.429.866,1.538,1.538,0,0,1-.173,1.472,1.459,1.459,0,0,1-1.212.606Zm-9.742,0H92.58a1.583,1.583,0,0,1-1.645-1.429,1.308,1.308,0,0,1,.39-1.082,1.436,1.436,0,0,1,1.083-.433,1.649,1.649,0,0,1,1.429.693A5.438,5.438,0,0,1,94.831,78.02ZM86.6,98.327H112.28v4.287H86.6Zm25.676,7.144v4.07c-2.468,2.381-8.313,4.763-12.729,6.105C95,114.3,88.986,111.793,86.6,109.368v-3.9ZM96.65,117.725,91.281,122.4l-2.165,1.862a19.534,19.534,0,0,1-7.274-8.313l-.043-.043-.563-1.169-.13-.3-.433-1.039-.173-.563-.346-.953-.216-.779-.26-.909-.043-.217,3.464-.823C84.786,113.265,92.363,116.3,96.65,117.725ZM55.344,133.658a21.986,21.986,0,0,1,14.072-20.523c2.381-.953,4.893-1.775,7.447-2.511l.173.606.3,1.039.39,1.256.346.953.433,1.126.39.866.52,1,.433.823.476.866.476.693.52.823.476.606.519.693.433.563.563.563.476.52.476.52.476.39.476.39.39.346.433.346.39.3.39.3.346.217.347.173.26.173.3.173.217.13.216.086.087.043.173.087.476.13h.087l.086-.043.3-.043.13-.043.39-.216,7.88-6.841V137.3H58.894A3.613,3.613,0,0,1,55.344,133.658Zm84.821,3.637H100.98v-17.06l7.837,6.841.347.216.13.043.346.043.086.043h.043l.519-.13.13-.087.13-.043.216-.086.217-.13.26-.173.3-.173.347-.173.3-.217.433-.3.346-.3.476-.346.39-.346.52-.39.433-.39.52-.52.433-.52.563-.563.433-.563.519-.693.476-.606.52-.823.476-.693.476-.866.433-.823.476-1,.433-.866.433-1.126.346-.953.39-1.256.3-1.039.173-.606c2.555.736,5.023,1.559,7.447,2.511a21.946,21.946,0,0,1,14.028,20.523A3.577,3.577,0,0,1,140.165,137.3Z" transform="translate(-52.529 -47.062)" fill="#004f4a"/>
    </clipPath>
  </defs>
  <g id="그룹_148" data-name="그룹 148" transform="translate(-52.529 -47.062)">
    <g id="그룹_146" data-name="그룹 146" transform="translate(52.529 47.062)">
      <path id="패스_142" data-name="패스 142" d="M130.639,110.451a94.016,94.016,0,0,0-9.136-2.944h0c-2.338-.606-4.417-1.039-6.365-1.386h-.043v-.649h1a1.429,1.429,0,1,0,0-2.857h-1V98.327h1a1.433,1.433,0,0,0,1.429-1.385,1.414,1.414,0,0,0-1.429-1.429h-.173c.823-2.511,1.818-5.023,2.857-7.4,2.165-5.369,4.46-10.911,4.46-16.28,0-13.682-10.565-24.766-23.511-24.766-12.989,0-23.511,11.084-23.511,24.766,0,5.456,2.295,11.128,4.546,16.583.953,2.338,1.905,4.763,2.685,7.1h-.086a1.388,1.388,0,0,0-1.429,1.429,1.4,1.4,0,0,0,1.429,1.385h.433v4.287h-.433a1.429,1.429,0,1,0,0,2.857h.433v.693c-1.905.347-3.94.779-6.235,1.342-3.161.866-6.235,1.818-9.179,2.944a24.762,24.762,0,0,0-15.847,23.208,6.394,6.394,0,0,0,6.365,6.451h81.271a6.394,6.394,0,0,0,6.365-6.451A24.8,24.8,0,0,0,130.639,110.451Zm-14.678-1.3c1.126.26,2.252.52,3.464.823l-.043.217-.26.866-.26.866-.26.779-.3.823-.26.693-.3.736-.346.693-.3.606-.346.649-.346.563-.3.563-.39.563-.346.52-.346.476-.346.476-.346.433-.346.39-.39.346-.3.39-.346.3-.3.346-.346.3-.346.26-.26.217-.3.216-.3.217-.216.216-.3.217-.217.13-.39.26-7.534-6.581C106.652,116.3,114.272,113.265,115.961,109.152ZM79.071,71.829c0-12.123,9.266-21.909,20.653-21.909s20.653,9.785,20.653,21.909c0,4.806-2.078,9.829-4.243,15.154a88.185,88.185,0,0,0-3.2,8.53h-7.707a63.973,63.973,0,0,1-1.082-14.635h2.9a4.32,4.32,0,0,0,4.07-5.845,4.275,4.275,0,0,0-4.07-2.814h-.086a4.349,4.349,0,0,0-3.55,1.775,9.316,9.316,0,0,0-1.732,4.027h-3.94a9.482,9.482,0,0,0-1.689-4.07,4.527,4.527,0,0,0-3.637-1.732,4.16,4.16,0,0,0-3.161,1.342,4.075,4.075,0,0,0-1.169,3.161,4.468,4.468,0,0,0,4.5,4.156h2.685a63.949,63.949,0,0,1-1.039,14.635H86.432c-.866-2.771-1.949-5.5-3.031-8.183C81.279,82.09,79.071,76.678,79.071,71.829Zm19.051,9.049h3.161a67.089,67.089,0,0,0,1.039,14.635h-5.2A64.821,64.821,0,0,0,98.122,80.878Zm6.451-2.857a6.852,6.852,0,0,1,1-2.252A1.761,1.761,0,0,1,107,75.076a1.471,1.471,0,0,1,1.429.866,1.538,1.538,0,0,1-.173,1.472,1.459,1.459,0,0,1-1.212.606Zm-9.742,0H92.58a1.583,1.583,0,0,1-1.645-1.429,1.308,1.308,0,0,1,.39-1.082,1.436,1.436,0,0,1,1.083-.433,1.649,1.649,0,0,1,1.429.693A5.438,5.438,0,0,1,94.831,78.02ZM86.6,98.327H112.28v4.287H86.6Zm25.676,7.144v4.07c-2.468,2.381-8.313,4.763-12.729,6.105C95,114.3,88.986,111.793,86.6,109.368v-3.9ZM96.65,117.725,91.281,122.4l-2.165,1.862a19.534,19.534,0,0,1-7.274-8.313l-.043-.043-.563-1.169-.13-.3-.433-1.039-.173-.563-.346-.953-.216-.779-.26-.909-.043-.217,3.464-.823C84.786,113.265,92.363,116.3,96.65,117.725ZM55.344,133.658a21.986,21.986,0,0,1,14.072-20.523c2.381-.953,4.893-1.775,7.447-2.511l.173.606.3,1.039.39,1.256.346.953.433,1.126.39.866.52,1,.433.823.476.866.476.693.52.823.476.606.519.693.433.563.563.563.476.52.476.52.476.39.476.39.39.346.433.346.39.3.39.3.346.217.347.173.26.173.3.173.217.13.216.086.087.043.173.087.476.13h.087l.086-.043.3-.043.13-.043.39-.216,7.88-6.841V137.3H58.894A3.613,3.613,0,0,1,55.344,133.658Zm84.821,3.637H100.98v-17.06l7.837,6.841.347.216.13.043.346.043.086.043h.043l.519-.13.13-.087.13-.043.216-.086.217-.13.26-.173.3-.173.347-.173.3-.217.433-.3.346-.3.476-.346.39-.346.52-.39.433-.39.52-.52.433-.52.563-.563.433-.563.519-.693.476-.606.52-.823.476-.693.476-.866.433-.823.476-1,.433-.866.433-1.126.346-.953.39-1.256.3-1.039.173-.606c2.555.736,5.023,1.559,7.447,2.511a21.946,21.946,0,0,1,14.028,20.523A3.577,3.577,0,0,1,140.165,137.3Z" transform="translate(-52.529 -47.062)" fill="#004f4a"/>
      <g id="마스크_그룹_23" data-name="마스크 그룹 23" clip-path="url(#clip-path)">
        <rect id="사각형_270" data-name="사각형 270" width="24" height="26" transform="translate(35 22.167)" fill="#90bd20"/>
      </g>
    </g>
    <g id="그룹_147" data-name="그룹 147" transform="translate(94.701 109.758)">
      <path id="패스_143" data-name="패스 143" d="M54.975,51.324h7.1a1.407,1.407,0,1,0,0-2.814h-7.1a1.409,1.409,0,1,0,0,2.814Z" transform="translate(-53.503 -48.51)" fill="#004f4a"/>
    </g>
  </g>
</svg>
