<svg xmlns="http://www.w3.org/2000/svg" width="24.475" height="37.537" viewBox="0 0 24.475 37.537">
  <g id="마이페이지" transform="translate(-640.746 -222.294)">
    <g id="그룹_6" data-name="그룹 6" transform="translate(643.582 222.294)">
      <path id="패스_9" data-name="패스 9" d="M651.543,240.381a8.994,8.994,0,1,1,8.994-8.994A9,9,0,0,1,651.543,240.381Zm0-16.972a7.977,7.977,0,1,0,7.978,7.978A7.987,7.987,0,0,0,651.543,223.409Z" transform="translate(-642.359 -222.201)" fill="#333"/>
      <path id="패스_10" data-name="패스 10" d="M651.635,240.664a9.185,9.185,0,1,1,9.184-9.184A9.194,9.194,0,0,1,651.635,240.664Zm0-17.988a8.8,8.8,0,1,0,8.8,8.8A8.814,8.814,0,0,0,651.635,222.676Zm0,16.972a8.168,8.168,0,1,1,8.168-8.168A8.177,8.177,0,0,1,651.635,239.648Zm0-15.956a7.787,7.787,0,1,0,7.788,7.788A7.8,7.8,0,0,0,651.635,223.692Z" transform="translate(-642.451 -222.294)" fill="#333"/>
    </g>
    <g id="그룹_7" data-name="그룹 7" transform="translate(641.246 239.266)">
      <path id="패스_11" data-name="패스 11" d="M663.931,250.83H641.852a.507.507,0,0,1-.508-.508v-7.629a11.547,11.547,0,1,1,23.095,0v7.629A.507.507,0,0,1,663.931,250.83Zm-21.571-1.016h21.063v-7.121a10.531,10.531,0,0,0-21.063,0Z" transform="translate(-641.154 -230.956)" fill="#333"/>
      <path id="패스_12" data-name="패스 12" d="M664.023,251.112H641.944a.7.7,0,0,1-.7-.7v-7.629a11.737,11.737,0,1,1,23.475,0v7.629A.7.7,0,0,1,664.023,251.112ZM652.984,231.43a11.37,11.37,0,0,0-11.357,11.355v7.629a.318.318,0,0,0,.318.316h22.079a.318.318,0,0,0,.318-.316v-7.629A11.37,11.37,0,0,0,652.984,231.43ZM663.515,250.1H642.452a.19.19,0,0,1-.19-.19v-7.121a10.721,10.721,0,0,1,21.443,0v7.121A.19.19,0,0,1,663.515,250.1Zm-20.871-.382h20.681v-6.929a10.341,10.341,0,0,0-20.681,0Z" transform="translate(-641.246 -231.048)" fill="#333" stroke="rgba(0,0,0,0)" stroke-width="1"/>
    </g>
  </g>
</svg>
