<svg xmlns="http://www.w3.org/2000/svg" width="35" height="34.983" viewBox="0 0 35 34.983">
  <g id="쿠폰" transform="translate(-52.69 -80.238)">
    <g id="그룹_190" data-name="그룹 190" transform="translate(52.69 80.238)">
      <path id="패스_181" data-name="패스 181" d="M87.528,102.153l-14.6-14.615a.671.671,0,0,0-.387-.145H70.286V85.12a.511.511,0,0,0-.145-.371l-4.367-4.367a.532.532,0,0,0-.9.387.489.489,0,0,0,.161.37,1.207,1.207,0,0,1,0,1.676,1.182,1.182,0,0,1-1.692,0,.567.567,0,0,0-.757,0,.6.6,0,0,0-.161.387.524.524,0,0,0,.161.371,1.191,1.191,0,0,1-1.676,1.692.535.535,0,0,0-.757,0,.51.51,0,0,0-.145.371.538.538,0,0,0,.145.371,1.2,1.2,0,0,1,.354.838,1.143,1.143,0,0,1-.354.838,1.124,1.124,0,0,1-.838.371,1.151,1.151,0,0,1-.838-.371h0a.567.567,0,0,0-.757,0,.535.535,0,0,0,0,.757h0a1.2,1.2,0,0,1,0,1.692,1.177,1.177,0,0,1-1.676,0,.535.535,0,0,0-.757,0,.525.525,0,0,0-.161.371.488.488,0,0,0,.161.354,1.266,1.266,0,0,1,.354.854,1.236,1.236,0,0,1-.354.854,1.207,1.207,0,0,1-1.676,0,.508.508,0,0,0-.757,0,.55.55,0,0,0-.161.355.563.563,0,0,0,.161.387l4.367,4.351a.467.467,0,0,0,.371.161h2.256v2.272a.524.524,0,0,0,.161.37l14.615,14.6a.507.507,0,0,0,.741,0,.5.5,0,0,0,0-.725,1.2,1.2,0,0,1,1.692-1.692.516.516,0,0,0,.741,0,.543.543,0,0,0,.161-.371.5.5,0,0,0-.161-.387,1.177,1.177,0,0,1,0-1.676,1.2,1.2,0,0,1,1.692,0,.546.546,0,0,0,.741,0,.524.524,0,0,0,.161-.387.49.49,0,0,0-.161-.371,1.155,1.155,0,0,1-.338-.838,1.22,1.22,0,0,1,.338-.854,1.227,1.227,0,0,1,1.692,0h0a.49.49,0,0,0,.741,0,.516.516,0,0,0,0-.741V107a1.158,1.158,0,0,1,0-1.66,1.2,1.2,0,0,1,1.692,0,.516.516,0,0,0,.741,0,.549.549,0,0,0,.161-.387.515.515,0,0,0-.161-.371,1.177,1.177,0,0,1,0-1.676,1.2,1.2,0,0,1,1.692,0,.546.546,0,0,0,.741,0,.523.523,0,0,0,.161-.387A.49.49,0,0,0,87.528,102.153Zm-3.174,0a2.234,2.234,0,0,0-.661,1.789,2.206,2.206,0,0,0-1.772.645,2.275,2.275,0,0,0-.661,1.773h-.177a2.242,2.242,0,0,0-1.6.661,2.2,2.2,0,0,0-.645,1.789,2.22,2.22,0,0,0-1.789.645,2.168,2.168,0,0,0-.645,1.789,2.22,2.22,0,0,0-1.789.645,2.406,2.406,0,0,0-.612,1.1l-13.1-13.117V97.286a.523.523,0,0,0-.532-.516H57.8l-2.836-2.852a2.417,2.417,0,0,0,1.08-.612,2.261,2.261,0,0,0,.645-1.773,2.267,2.267,0,0,0,1.789-.677,2.222,2.222,0,0,0,.645-1.773l.193.016a2.3,2.3,0,0,0,1.6-.661,2.206,2.206,0,0,0,.645-1.773,2.331,2.331,0,0,0,1.789-.661,2.3,2.3,0,0,0,.661-1.6l-.016-.193a2.169,2.169,0,0,0,1.789-.645,2.321,2.321,0,0,0,.6-1.08l2.852,2.852v2.578a.5.5,0,0,0,.161.371l.1.064.064.048h.016l.193.048h2.578l13.1,13.1A2.122,2.122,0,0,0,84.354,102.153Z" transform="translate(-52.69 -80.238)" fill="#fff"/>
    </g>
    <g id="그룹_191" data-name="그룹 191" transform="translate(66.101 90.511)">
      <path id="패스_182" data-name="패스 182" d="M53.679,81.045a.516.516,0,0,0,0,.741.453.453,0,0,0,.371.145.508.508,0,0,0,.387-.145.546.546,0,0,0,0-.741A.508.508,0,0,0,53.679,81.045Z" transform="translate(-53.522 -80.875)" fill="#fff"/>
    </g>
    <g id="그룹_192" data-name="그룹 192" transform="translate(62.975 93.633)">
      <path id="패스_183" data-name="패스 183" d="M53.485,81.226a.535.535,0,0,0,0,.757.555.555,0,0,0,.371.161.525.525,0,0,0,.371-.161.535.535,0,0,0,0-.757A.516.516,0,0,0,53.485,81.226Z" transform="translate(-53.328 -81.069)" fill="#fff"/>
    </g>
    <g id="그룹_193" data-name="그룹 193" transform="translate(61.412 95.2)">
      <path id="패스_184" data-name="패스 184" d="M53.388,81.336a.516.516,0,0,0,0,.741.525.525,0,0,0,.757,0,.546.546,0,0,0,0-.741A.508.508,0,0,0,53.388,81.336Z" transform="translate(-53.231 -81.166)" fill="#fff"/>
    </g>
    <g id="그룹_194" data-name="그룹 194" transform="translate(64.538 92.086)">
      <path id="패스_185" data-name="패스 185" d="M53.582,81.13a.5.5,0,0,0,0,.725.489.489,0,0,0,.371.161.466.466,0,0,0,.371-.161.473.473,0,0,0,0-.725A.516.516,0,0,0,53.582,81.13Z" transform="translate(-53.425 -80.973)" fill="#fff"/>
    </g>
    <g id="그룹_195" data-name="그룹 195" transform="translate(67.664 88.944)">
      <path id="패스_186" data-name="패스 186" d="M54.518,80.935a.516.516,0,0,0-.741,0,.535.535,0,0,0,0,.757.555.555,0,0,0,.371.161.524.524,0,0,0,.371-.161A.535.535,0,0,0,54.518,80.935Z" transform="translate(-53.619 -80.778)" fill="#fff"/>
    </g>
    <g id="그룹_196" data-name="그룹 196" transform="translate(68.679 96.223)">
      <path id="패스_187" data-name="패스 187" d="M53.839,90.318a.514.514,0,0,0,.371.161.523.523,0,0,0,.387-.161l8.186-8.186a.535.535,0,0,0,0-.757.546.546,0,0,0-.741,0l-8.2,8.2A.516.516,0,0,0,53.839,90.318Z" transform="translate(-53.682 -81.23)" fill="#fff"/>
    </g>
    <g id="그룹_197" data-name="그룹 197" transform="translate(73.795 101.363)">
      <path id="패스_188" data-name="패스 188" d="M54.616,82.129a2.053,2.053,0,0,0,0,2.933,2.008,2.008,0,0,0,1.45.6,2.073,2.073,0,0,0,1.466-.6,2.1,2.1,0,0,0,.6-1.466,2.072,2.072,0,0,0-.6-1.466A2.123,2.123,0,0,0,54.616,82.129ZM56.775,84.3a1.043,1.043,0,0,1-1.418,0,1.012,1.012,0,0,1,0-1.418.988.988,0,0,1,.709-.306.962.962,0,0,1,.709.306.973.973,0,0,1,.29.709A1,1,0,0,1,56.775,84.3Z" transform="translate(-54 -81.549)" fill="#fff"/>
    </g>
    <g id="그룹_198" data-name="그룹 198" transform="translate(68.691 96.259)">
      <path id="패스_189" data-name="패스 189" d="M54.279,81.824a1.971,1.971,0,0,0-.6,1.434,2.063,2.063,0,1,0,4.125,0,1.971,1.971,0,0,0-.6-1.434A2.112,2.112,0,0,0,54.279,81.824Zm2.175,2.159a1.011,1.011,0,0,1-1.418,0,.993.993,0,0,1,0-1.434,1.011,1.011,0,0,1,1.418,0,1,1,0,0,1,.29.709A1.01,1.01,0,0,1,56.455,83.984Z" transform="translate(-53.683 -81.232)" fill="#fff"/>
    </g>
  </g>
</svg>
