<svg xmlns="http://www.w3.org/2000/svg" width="30.998" height="26.144" viewBox="0 0 30.998 26.144">
  <g id="배송아이콘" transform="translate(-18.951 -33.16)">
    <g id="그룹_185" data-name="그룹 185" transform="translate(28.289 55.434)">
      <path id="패스_176" data-name="패스 176" d="M20.148,34.72a.528.528,0,0,0-.543.514.539.539,0,0,0,.543.528.524.524,0,0,0,.514-.528A.512.512,0,0,0,20.148,34.72Z" transform="translate(-19.605 -34.72)" fill="#fff"/>
    </g>
    <g id="그룹_186" data-name="그룹 186" transform="translate(42.839 55.434)">
      <path id="패스_177" data-name="패스 177" d="M21.152,34.72a.524.524,0,0,0-.528.514.528.528,0,0,0,1.057,0A.524.524,0,0,0,21.152,34.72Z" transform="translate(-20.624 -34.72)" fill="#fff"/>
    </g>
    <g id="그룹_187" data-name="그룹 187" transform="translate(22.235 36.444)">
      <path id="패스_178" data-name="패스 178" d="M19.652,44.5H31.46a.475.475,0,0,0,.471-.471V33.861a.466.466,0,0,0-.471-.471H19.652a.466.466,0,0,0-.471.471V44.027A.475.475,0,0,0,19.652,44.5Zm.471-10.166H30.989v9.224H20.123Z" transform="translate(-19.181 -33.39)" fill="#fff"/>
    </g>
    <g id="그룹_188" data-name="그룹 188" transform="translate(40.283 49.894)">
      <path id="패스_179" data-name="패스 179" d="M22.687,34.332H20.916a.475.475,0,0,0-.471.471.466.466,0,0,0,.471.471h1.771a.455.455,0,0,0,.457-.471A.463.463,0,0,0,22.687,34.332Z" transform="translate(-20.445 -34.332)" fill="#fff"/>
    </g>
    <g id="그룹_189" data-name="그룹 189" transform="translate(18.951 33.16)">
      <path id="패스_180" data-name="패스 180" d="M49.949,50.365v-.057l-.014-2.456h0a10.269,10.269,0,0,0-4.64-9.167A6.786,6.786,0,0,0,41.554,37.6H38.27V33.617a.463.463,0,0,0-.471-.457H19.422a.455.455,0,0,0-.471.457V54.378a2.041,2.041,0,0,0,2.042,2.042H25.5a3.353,3.353,0,0,0,6.639,0h7.91A3.332,3.332,0,0,0,43.367,59.3a3.38,3.38,0,0,0,3.327-2.884h1.214a2.041,2.041,0,0,0,2.042-2.042v-.942h0Zm-21.118,8.01a2.42,2.42,0,1,1,2.4-2.427A2.425,2.425,0,0,1,28.832,58.376Zm8.5-2.884H32.144a3.35,3.35,0,0,0-6.639,0H20.993a1.112,1.112,0,0,1-1.1-1.114V50.837H37.327Zm0-5.6H19.893V34.1H37.327Zm11.68,3.07h-.271a1.054,1.054,0,0,1-1.057-1.057,1.066,1.066,0,0,1,1.057-1.071h.271ZM41.082,38.543h.471a5.925,5.925,0,0,1,3.227.928,9.292,9.292,0,0,1,4.212,7.91H43.81a9.868,9.868,0,0,0-2.727-5.04Zm2.285,19.833a2.42,2.42,0,1,1,2.413-2.427A2.413,2.413,0,0,1,43.367,58.376Zm4.541-2.884H46.694a3.379,3.379,0,0,0-3.327-2.9,3.332,3.332,0,0,0-3.313,2.9H38.27V38.543h1.87v3.984a.5.5,0,0,0,.143.343,8.876,8.876,0,0,1,2.556,4.512H40.754a.471.471,0,0,0,0,.942h8.239l.014,1.571h-.271a2.006,2.006,0,0,0,0,4.012h.286v.471A1.134,1.134,0,0,1,47.907,55.491Z" transform="translate(-18.951 -33.16)" fill="#fff"/>
    </g>
  </g>
</svg>
