<svg xmlns="http://www.w3.org/2000/svg" width="41.293" height="36.862" viewBox="0 0 41.293 36.862">
  <g id="회원가입" transform="translate(-862.451 -645.063)">
    <g id="그룹_8" data-name="그룹 8" transform="translate(862.451 680.382)">
      <path id="패스_13" data-name="패스 13" d="M902.861,662.759h-39.75a.562.562,0,0,1,0-1.123h39.75a.562.562,0,0,1,0,1.123Z" transform="translate(-862.339 -661.426)" fill="#333"/>
      <path id="패스_14" data-name="패스 14" d="M902.973,663.081h-39.75a.772.772,0,1,1,0-1.543h39.75a.772.772,0,0,1,0,1.543Zm-39.75-1.123a.352.352,0,1,0,0,.7h39.75a.352.352,0,0,0,0-.7Z" transform="translate(-862.451 -661.538)" fill="#333"/>
    </g>
    <g id="그룹_9" data-name="그룹 9" transform="translate(872.437 645.063)">
      <path id="패스_15" data-name="패스 15" d="M868.171,677.249a.577.577,0,0,1-.3-.09.563.563,0,0,1-.255-.437l-.4-6.494a.547.547,0,0,1,.088-.341l15.862-24.469a.559.559,0,0,1,.776-.167l6.483,4.2a.563.563,0,0,1,.167.778L874.723,674.7a.547.547,0,0,1-.272.219l-6.08,2.3A.576.576,0,0,1,868.171,677.249Zm.169-6.907.345,5.55,5.194-1.959,15.457-23.843L883.8,646.5Zm5.91,4.05h0Z" transform="translate(-866.997 -644.951)" fill="#333"/>
      <path id="패스_16" data-name="패스 16" d="M868.284,677.571a.774.774,0,0,1-.77-.725l-.4-6.493a.771.771,0,0,1,.122-.47l15.86-24.469a.775.775,0,0,1,1.07-.227l6.483,4.2a.772.772,0,0,1,.227,1.068l-15.859,24.469a.773.773,0,0,1-.375.3l-6.08,2.3A.8.8,0,0,1,868.284,677.571Zm15.459-32.088a.281.281,0,0,0-.073.009.349.349,0,0,0-.223.152l-15.86,24.469a.355.355,0,0,0-.056.212l.4,6.5a.349.349,0,0,0,.161.272.354.354,0,0,0,.315.034l6.078-2.294a.354.354,0,0,0,.171-.139l15.86-24.469a.349.349,0,0,0-.1-.485l-6.483-4.2A.343.343,0,0,0,883.742,645.483ZM868.8,676.214a.2.2,0,0,1-.114-.034.2.2,0,0,1-.1-.163l-.345-5.55a.207.207,0,0,1,.034-.127L883.729,646.5a.209.209,0,0,1,.292-.062l5.542,3.589a.209.209,0,0,1,.062.291L874.17,674.158a.208.208,0,0,1-.1.084l-5.194,1.959A.223.223,0,0,1,868.8,676.214Zm-.131-5.7.324,5.194,4.862-1.835,15.3-23.607-5.188-3.361Zm5.7,4.2a.215.215,0,0,1-.214-.212.209.209,0,0,1,.208-.21h.006a.211.211,0,0,1,0,.422Z" transform="translate(-867.109 -645.063)" fill="#333"/>
    </g>
  </g>
</svg>
